<mxfile host="app.diagrams.net" modified="2022-07-01T05:31:07.339Z" agent="5.0 (Windows NT 10.0; Win64; x64) AppleWebKit/537.36 (KHTML, like Gecko) Chrome/103.0.0.0 Safari/537.36" etag="r9WgoAERLLBcLToDTrLN" version="20.0.4" type="github">
  <diagram id="4UVPahDyf4iu8To8ODbl" name="Page-1">
    <mxGraphModel dx="928" dy="1572" grid="1" gridSize="10" guides="1" tooltips="1" connect="1" arrows="1" fold="1" page="1" pageScale="1" pageWidth="827" pageHeight="1169" math="0" shadow="0">
      <root>
        <mxCell id="0" />
        <mxCell id="1" parent="0" />
        <mxCell id="TSUCbPAbVoKPbsh4vDsl-1" value="File Upload&lt;br&gt;&lt;br&gt;&lt;br&gt;&lt;br&gt;&lt;br&gt;" style="rounded=0;whiteSpace=wrap;html=1;" parent="1" vertex="1">
          <mxGeometry x="350" y="10" width="150" height="92" as="geometry" />
        </mxCell>
        <mxCell id="z5UoV5zgiOwqLkhASiBS-1" value="" style="shape=image;verticalLabelPosition=bottom;labelBackgroundColor=default;verticalAlign=top;aspect=fixed;imageAspect=0;image=data:image/png,iVBORw0KGgoAAAANSUhEUgAAAQQAAABeCAYAAADFamovAAALpklEQVR4nO2de4xcVR3Hv/fOzu62ghSI21oUghRfJLbyUDCESIyYYKaa+I+gifzTOEuQSAxiyZREEv8gnRrjA2WIMf7hDjHGmCVsiGb8g8BOxWhmGwrdtY07KxTv2tJppXR3Zvce/5BzeufufZz72N07M99PcpOde8/jd37nnO953LMzhhBCgBBCAJibbQAhJDtQEAghCgoCIURBQSCEKCgIhBAFBYEQoqAgEEIUFARCiIKCQAhRUBAIIQoKAiFEQUEghCgoCIQQBQWBEKKgIBBCFBQEQoiCgkAIUVAQCCEKCgIhREFBIIQoKAiEEAUFgRCioCAQQhRDm20ASZ+lVWDhHRt/fctGqyOwLW/glitMXL3VxGhus60jWYaC0CecaQs8dWIFT53o4I0LArbHz++YBvCRS018+8N5fO2aIYoDWYPBX27qbf67IvD9VzqonOjgnVX9eJcPG3j043l86/o8hoz1s4/0FhSEHuaVszburS/j1XN27DRuf18OE7eOYOcWqgKhIPQsz51cxX0vL+NMO3n17dxi4LefGcWtV3KPedChIPQgz7+5insPL+NcJ72qGxsx8JvbRnDnGDcWBhkKQo9x9KyNL76whNcvpF9tH9hi4Lk7RnHDZZwpDCqs+R5iaRV45Eh7XcQAAF6/IPDIkTaWImxOkv6CgtADvL0i8Lt/reAbf1lGzdLvrXkT+Nz2HPIRarlmreL3r6/EsJL0A1wyZJiXT9t4eKaN+ulVz3MFQeRN4Indw7h/Vx5PHu/gkZk2OpovI26+wsSfPjuKS/k+cuDgDCGDLK0CD/ytjdv/fAEvnYonBof2DOPBd88YPHh9Hof2DGvPFF47Z+PwqfivMknvQkHIGGfaAl9+cQm/ONGJLATARTG4f1e+6/79u/RF4fwKUD/NjYRBhEuGDLG0CtxTX8KzJ+N1Rj8xcPLk8Q6+0whfPozmgBsvz+ELO3K479ohXMWDSwMBBSFDfHemjR/NxZsZjOaAg7uHMR4gBpKfH+/g4Rn9twmmAdz9/hyevIknGvsdCkJGmD61ii+9GO/kYRQxkEQVBYCHlwYB7iFkAAHgp/9Y2TAxAIDxXXkc3D0c6T8eF5cFvvLSMp5/k/sL/QoFIQPMnxc4HGMTL64YSOKIwrmOwAN/X8b8eU4s+xF+H0IGOHx6FScjnj7Mm8D3PjaMu3bkcOLtizuElwwZ2D7qv863lgTeXrmY1107cjjdHsYPXtU/pzB/XuDHcx388JPDkWwm2Yd7CBng8aNtPH60k0pad+3IYeqOUd/nd7+whD/+O/mU/+qtBmp3bsG17+EmYz/BJUMGaLU324LoWEsCMy3uJfQbFAQSi2UbONLiacZ+g4KQAa7a2pvT7l6c2ZBgKAgZ4LpLDIywJkgGYDPMADddnsOOgDcDWYVfpNJ/sEYzwAe3Gvj8jt46/bctb1AQ+hCeQ8gI37wujz+8sYpTy8neAp+8IPCz4/6vMKOed/Djo+81cMNlvTerIcHwHEKGKM928OiRdqx/btpI8ibwy1tGcO81HE/6Dc75MsQDu/L46tVDMDM+8H79miHcQzHoSygIGWI0B1RuHsm0KBR25vCTG0eQUfNIQigIGWM0B/z60yMo7xnO1HcamgZQvC6P6m2j/E3IPoZ7CBnmTFvg4LEOfvXPFfwn4WZjXPImcOuVOTzxiWF8ir/s1PdQEHqEt9oCr52z0dig48KjpoHbrjTxoUv4E/KDBAWBEKLgHJAQoqAgEEIUFARCiIKCQAhRUBAIIQoKAiFEQUEghCj4HyoDBo+d9DeGYUAIAcOId+ydgvAusqPEdWTadkikPWnYF7ehOG3yi58V/wHZsiUNopZHioLzsy5Dzgz9EsuqgzfDLr8R1stPfp/d8cLyS6N8Mp2kM4Sw+FmagWTJljSIUh5nm4nShriHkBLOyvKqOL/KDBKYtEhLDEjvIIRQV5S6HwLWzgrcCQd9diuRG7/R0StP3Xt+NgbZEpSOVzydqXoUv/nl5xcnKL5u5TrXkxSDwcXZBsIGmjUzhKgNUaez6saLk75fnknT8bM7KUlH/rT8QQYL3YEh1SVDWGM3DENdQfeipu8XPyjdtNblcdJzTuf80khqX5ppkcFBWxB0GlU/jER+wuIXVlfMvOKliTs93eUHIU6UILgbVJzRPiyubJhejdVrzZ+046zXtD+MIJv9yhs3H3n57XVwdkCiEGmGYJomTPP/Udy7mGGbi0HP/O65O7Tf9DrNjh/1Nd/MzAz27t0LwzDw2GOPwTTNUJGUtjr96UXY8zAfBaXpvjYCnbzm5uYwPj4O4KJvTdPEgQMHNsLERCwsLHjaeuDAAZimiYWFBXXvmWeeUWUzTRNPP/00FhcX1fMgX+nkMz4+jrm5OfVM+8CS0GB2dlYAUNfs7KywbVs9l/eFEMK27a5nTryeed1rNpuiXC6vCaMbX+dZWFjduIVCQTjd6PRFWF5hYb38Km3y8oefj7zydPt0Iy6dvIvFoqhWq8K2beXbzbDV75qfnxcHDx70fT4xMSEAiOnpaWHbtpienhYAxMTExJow8/PzwrZtcezYMQFAFItFbV+F5TMxMaHSk/Wvg5YgVKtVAUCUy2UBQFSrVa3E4+LuKFE6dlKCxMcLHQFYj7hx2Yw8dfNuNpsCgGg0GlrhNwMdmwqFgigUCqLVaqm/o6aRNJ9GoyEAiGazGanvaHlbKnWr1RIAtAo4OTmp4k1OTgaGd352zkSco2OlUlH3/NJzx/MscEDezs/NZlM5WTZQv7S87PfzRblcFpZldYVtNBqeeXmlpeOHcrksSqVSaPndsw3LsgQAUSqV1L1SqSQACMuy1D2v8shnbvuizBDkwCOFwXl55e2Xviy/857Tx7VaTdRqtS6fO30gBz45assZsZ9N7qter3eFq9fra2ZBMm3ZYePMpoLykT6MOniHCoJcLlQqla4GOTs769nIhBCiVqspA6XRtVrNN3zYZ9lQ6vW6Uj5nem5bg5ygm3e9XlcdxC2AUdKbnJxck55cDsmw1WpVPSsWi7H9IMM768bPXj8Bddad/NuZR1B5dO3zQ4qPX3jdduXVNuv1uhrQZDwvn5dKJRXfq/7DyuAui5cwS984BazZbHaFSSMfv/tBhOYoK1mOXLIwztHJbbxUQOfzoIYe9tlrne5Mz5lvUOeNk3dYxUS1PYktYX7QaUQ6YaQfC4XCGj8HlSepfWHlj9qudNL0itNsNsXk5KTqbFHagySoo8o8nOk7+1ha+eim0RUnLICshFar1ZVRkg4e97PfqCaE8BzNPAu8wYIQFD9tP6QlCM6paNhyz+tZXPvSbjdx4sgBr1KpqBlCVB97TeX9aDabqo9FnYmE5ZO6IDgd4nW518KS9Z4huJFTQa9Zw5oCb7AgrOcMISy9uGEKhYKoVCqiXC6rTSsdG5LaF1b+jZghJG0PQoRvKnqxHvmkLgjO9aITqUxy9HBnHLbWkxVrWZYKG+QM59rUa90nN4Hc6zAvouadtBF7rbnl9C5q3mF+SEMQpL3NZtNzYyqoPEntk/XoFz7q3pTXPV3RtSyrawTWLYPTB0Jc7CtOH8o2KPcq5KzEGSaNfAB0vb7XIbD1ODuPE3dlexkvd4MLhcKaaafc8ZW7rO740kHOdZF0gCyk0yZ533n5EZZ32oIgfeFle5y8dfwQhJevZBz3JqEQ3mLrV56k9jnFyC98ULtKQxCcbyOc5XQ+d7dNiWxP7mdynS/LZVlW19uYQqGwZiM8qJ508pFh3D4KI5Wfcgv6AhBCdFlcXMT27dvRaDSwe/fuzTanp5mZmcGePXtgWRbGxsa04yU+s3r27FkAQLFYTJoUGXDGxsZQLBa7jviSeCwsLKBUKkUSAyChIBw6dAjbtm1DsVjEQw89lCQpQgAA+/fvx9TU1Gab0fNMTU1h3759kePx158JIQp+pyIhREFBIIQoKAiEEAUFgRCioCAQQhQUBEKIgoJACFH8D0Z2PBwWcgq8AAAAAElFTkSuQmCC;" parent="1" vertex="1">
          <mxGeometry x="353.36" y="35" width="138.28" height="50" as="geometry" />
        </mxCell>
        <mxCell id="O9G0qqj6Nie969zO0wKp-15" style="edgeStyle=orthogonalEdgeStyle;rounded=0;orthogonalLoop=1;jettySize=auto;html=1;exitX=0.5;exitY=1;exitDx=0;exitDy=0;entryX=0.5;entryY=0;entryDx=0;entryDy=0;fontColor=#000000;" parent="1" source="TSUCbPAbVoKPbsh4vDsl-2" target="O9G0qqj6Nie969zO0wKp-9" edge="1">
          <mxGeometry relative="1" as="geometry" />
        </mxCell>
        <mxCell id="TSUCbPAbVoKPbsh4vDsl-2" value="Attente &quot;générique&quot;" style="rounded=0;whiteSpace=wrap;html=1;" parent="1" vertex="1">
          <mxGeometry x="362.5" y="120" width="120" height="60" as="geometry" />
        </mxCell>
        <mxCell id="TSUCbPAbVoKPbsh4vDsl-3" value="&lt;div&gt;&lt;span&gt;Rapports &quot;Erreur&quot;&lt;/span&gt;&lt;/div&gt;&lt;br&gt;+ Téléchargement auto de Excel ParseResults" style="rounded=0;whiteSpace=wrap;html=1;align=center;" parent="1" vertex="1">
          <mxGeometry x="258" y="461" width="150" height="80" as="geometry" />
        </mxCell>
        <mxCell id="TSUCbPAbVoKPbsh4vDsl-4" value="R&lt;span&gt;apports &quot;Succès&quot;&lt;/span&gt;&lt;br&gt;&lt;div&gt;&lt;/div&gt;&lt;br&gt;+ Téléchargement auto de Excel ImportResults" style="rounded=0;whiteSpace=wrap;html=1;align=center;" parent="1" vertex="1">
          <mxGeometry x="460" y="461" width="150" height="80" as="geometry" />
        </mxCell>
        <mxCell id="TSUCbPAbVoKPbsh4vDsl-7" value="❌&lt;b&gt;Rejet&lt;/b&gt;&lt;br&gt;(Fin 1)" style="ellipse;whiteSpace=wrap;html=1;aspect=fixed;fillColor=#ffe6cc;strokeColor=#d79b00;" parent="1" vertex="1">
          <mxGeometry x="710" y="240" width="80" height="80" as="geometry" />
        </mxCell>
        <mxCell id="TSUCbPAbVoKPbsh4vDsl-24" value="&lt;font style=&quot;font-size: 12px&quot;&gt;Import Excel&lt;br&gt;100% OK ?&lt;/font&gt;" style="rhombus;whiteSpace=wrap;html=1;" parent="1" vertex="1">
          <mxGeometry x="380" y="374" width="80" height="80" as="geometry" />
        </mxCell>
        <mxCell id="TSUCbPAbVoKPbsh4vDsl-30" value="✅&lt;b&gt;Succès&lt;/b&gt;&lt;br&gt;(Fin 3)" style="ellipse;whiteSpace=wrap;html=1;aspect=fixed;fillColor=#ffe6cc;strokeColor=#d79b00;" parent="1" vertex="1">
          <mxGeometry x="710" y="544.5" width="80" height="80" as="geometry" />
        </mxCell>
        <mxCell id="TSUCbPAbVoKPbsh4vDsl-31" value="&lt;b&gt;&amp;nbsp; &amp;nbsp; &amp;nbsp;Erreur&lt;/b&gt;&lt;br&gt;(Fin 2)" style="ellipse;whiteSpace=wrap;html=1;aspect=fixed;fillColor=#ffe6cc;strokeColor=#d79b00;" parent="1" vertex="1">
          <mxGeometry x="121" y="544.5" width="80" height="80" as="geometry" />
        </mxCell>
        <mxCell id="TSUCbPAbVoKPbsh4vDsl-36" value="" style="endArrow=classic;html=1;rounded=0;strokeColor=#006600;entryX=0.31;entryY=0.001;entryDx=0;entryDy=0;entryPerimeter=0;" parent="1" target="TSUCbPAbVoKPbsh4vDsl-4" edge="1">
          <mxGeometry relative="1" as="geometry">
            <mxPoint x="460" y="414" as="sourcePoint" />
            <mxPoint x="505" y="454" as="targetPoint" />
            <Array as="points">
              <mxPoint x="490" y="414" />
              <mxPoint x="507" y="414" />
            </Array>
          </mxGeometry>
        </mxCell>
        <mxCell id="TSUCbPAbVoKPbsh4vDsl-37" value="✅OUI&amp;nbsp;" style="edgeLabel;resizable=0;html=1;align=center;verticalAlign=middle;fontColor=#006600;" parent="TSUCbPAbVoKPbsh4vDsl-36" connectable="0" vertex="1">
          <mxGeometry relative="1" as="geometry">
            <mxPoint x="-145" y="-184" as="offset" />
          </mxGeometry>
        </mxCell>
        <mxCell id="TSUCbPAbVoKPbsh4vDsl-45" value="" style="endArrow=classic;html=1;rounded=0;exitX=0;exitY=0.5;exitDx=0;exitDy=0;strokeColor=#CC0000;entryX=0.5;entryY=0;entryDx=0;entryDy=0;" parent="1" source="TSUCbPAbVoKPbsh4vDsl-24" target="TSUCbPAbVoKPbsh4vDsl-3" edge="1">
          <mxGeometry relative="1" as="geometry">
            <mxPoint x="360" y="314" as="sourcePoint" />
            <mxPoint x="336" y="454" as="targetPoint" />
            <Array as="points">
              <mxPoint x="333" y="414" />
            </Array>
          </mxGeometry>
        </mxCell>
        <mxCell id="TSUCbPAbVoKPbsh4vDsl-46" value="❌NON" style="edgeLabel;resizable=0;html=1;align=center;verticalAlign=middle;fontColor=#CC0000;" parent="TSUCbPAbVoKPbsh4vDsl-45" connectable="0" vertex="1">
          <mxGeometry relative="1" as="geometry">
            <mxPoint x="21" y="-13" as="offset" />
          </mxGeometry>
        </mxCell>
        <mxCell id="PQ5lRCYeLyrYNy7Ynxfq-3" value="" style="endArrow=classic;html=1;rounded=0;entryX=0;entryY=0.5;entryDx=0;entryDy=0;exitX=0.5;exitY=1;exitDx=0;exitDy=0;" parent="1" source="HX-YwnKvqhDAjYfnIiUI-17" target="TSUCbPAbVoKPbsh4vDsl-30" edge="1">
          <mxGeometry relative="1" as="geometry">
            <mxPoint x="610" y="500" as="sourcePoint" />
            <mxPoint x="680" y="500" as="targetPoint" />
            <Array as="points">
              <mxPoint x="590" y="585" />
            </Array>
          </mxGeometry>
        </mxCell>
        <mxCell id="PQ5lRCYeLyrYNy7Ynxfq-4" value="Import&lt;br&gt;réalisé à 100%" style="edgeLabel;resizable=0;html=1;align=center;verticalAlign=middle;fillColor=#B9E0A5;" parent="PQ5lRCYeLyrYNy7Ynxfq-3" connectable="0" vertex="1">
          <mxGeometry relative="1" as="geometry">
            <mxPoint x="14" as="offset" />
          </mxGeometry>
        </mxCell>
        <mxCell id="PQ5lRCYeLyrYNy7Ynxfq-16" value="" style="endArrow=classic;html=1;rounded=0;entryX=1;entryY=0.5;entryDx=0;entryDy=0;" parent="1" target="TSUCbPAbVoKPbsh4vDsl-31" edge="1">
          <mxGeometry relative="1" as="geometry">
            <mxPoint x="389" y="544" as="sourcePoint" />
            <mxPoint x="160" y="574" as="targetPoint" />
            <Array as="points">
              <mxPoint x="389" y="585" />
            </Array>
          </mxGeometry>
        </mxCell>
        <mxCell id="PQ5lRCYeLyrYNy7Ynxfq-17" value="Aucun import" style="edgeLabel;resizable=0;html=1;align=center;verticalAlign=middle;fillColor=#B9E0A5;" parent="PQ5lRCYeLyrYNy7Ynxfq-16" connectable="0" vertex="1">
          <mxGeometry relative="1" as="geometry">
            <mxPoint x="-26" as="offset" />
          </mxGeometry>
        </mxCell>
        <mxCell id="NqZcQhGpQadG-bkUrXEM-7" value="" style="endArrow=classic;html=1;rounded=0;entryX=0.5;entryY=0;entryDx=0;entryDy=0;" parent="1" target="TSUCbPAbVoKPbsh4vDsl-2" edge="1">
          <mxGeometry x="-0.0519" y="1" relative="1" as="geometry">
            <mxPoint x="421" y="100" as="sourcePoint" />
            <mxPoint x="417" y="140" as="targetPoint" />
            <Array as="points" />
            <mxPoint as="offset" />
          </mxGeometry>
        </mxCell>
        <mxCell id="HX-YwnKvqhDAjYfnIiUI-5" value="" style="endArrow=none;html=1;rounded=0;" parent="1" edge="1">
          <mxGeometry x="-0.1667" relative="1" as="geometry">
            <mxPoint x="420" y="210" as="sourcePoint" />
            <mxPoint x="420" y="210" as="targetPoint" />
            <mxPoint as="offset" />
          </mxGeometry>
        </mxCell>
        <mxCell id="HX-YwnKvqhDAjYfnIiUI-16" value="&lt;font size=&quot;1&quot;&gt;&lt;b style=&quot;font-size: 7px&quot;&gt;Abandonner&lt;/b&gt;&lt;/font&gt;" style="rounded=1;whiteSpace=wrap;html=1;strokeWidth=2;verticalAlign=bottom;fillColor=#dae8fc;strokeColor=#999999;fontColor=#3399FF;" parent="1" vertex="1">
          <mxGeometry x="360" y="530.5" width="48" height="17" as="geometry" />
        </mxCell>
        <mxCell id="HX-YwnKvqhDAjYfnIiUI-17" value="&lt;font size=&quot;1&quot;&gt;&lt;b style=&quot;font-size: 7px&quot;&gt;Terminer&lt;/b&gt;&lt;/font&gt;" style="rounded=1;whiteSpace=wrap;html=1;strokeWidth=2;verticalAlign=bottom;fillColor=#dae8fc;strokeColor=#999999;fontColor=#3399FF;" parent="1" vertex="1">
          <mxGeometry x="570" y="530.5" width="40" height="17" as="geometry" />
        </mxCell>
        <mxCell id="HX-YwnKvqhDAjYfnIiUI-24" value="&lt;b style=&quot;font-size: 7px;&quot;&gt;&quot;Vérifier&quot; (ou Auto)&lt;/b&gt;" style="rounded=1;html=1;strokeWidth=2;verticalAlign=bottom;fillColor=#dae8fc;strokeColor=#999999;fontColor=#3399FF;horizontal=1;" parent="1" vertex="1">
          <mxGeometry x="380.5" y="90" width="79" height="17" as="geometry" />
        </mxCell>
        <mxCell id="Jls3OtoX2Lpwt2niCwrY-1" value="" style="shape=image;verticalLabelPosition=bottom;verticalAlign=top;imageAspect=0;aspect=fixed;image=data:image/svg+xml,PHN2ZyB4bWxucz0iaHR0cDovL3d3dy53My5vcmcvMjAwMC9zdmciIHdpZHRoPSI0OCIgaGVpZ2h0PSI0OCIgdmlld0JveD0iMCAwIDQ4IDQ4Ij4KICAgIDxwYXRoIGZpbGwtb3BhY2l0eT0iLjkiIGQ9Ik0yMy45OSA0Yy0xMS4wNSAwLTE5Ljk5IDguOTUtMTkuOTkgMjBzOC45NCAyMCAxOS45OSAyMGMxMS4wNSAwIDIwLjAxLTguOTUgMjAuMDEtMjBzLTguOTYtMjAtMjAuMDEtMjB6bS4wMSAzNmMtOC44NCAwLTE2LTcuMTYtMTYtMTZzNy4xNi0xNiAxNi0xNiAxNiA3LjE2IDE2IDE2LTcuMTYgMTYtMTYgMTZ6Ii8+CiAgICA8cGF0aCBkPSJNMCAwaDQ4djQ4aC00OHoiIGZpbGw9Im5vbmUiLz4KICAgIDxwYXRoIGZpbGwtb3BhY2l0eT0iLjkiIGQ9Ik0yNSAxNGgtM3YxMmwxMC40OSA2LjMgMS41MS0yLjQ2LTktNS4zNHoiLz4KPC9zdmc+" parent="1" vertex="1">
          <mxGeometry x="362" y="120" width="20" height="20" as="geometry" />
        </mxCell>
        <mxCell id="DMQDrrK3bXKj25TeuVYA-2" value="" style="shape=image;verticalLabelPosition=bottom;verticalAlign=top;imageAspect=0;aspect=fixed;image=data:image/svg+xml,PHN2ZyB4bWxucz0iaHR0cDovL3d3dy53My5vcmcvMjAwMC9zdmciIHdpZHRoPSI0OCIgaGVpZ2h0PSI0OCIgdmlld0JveD0iMCAwIDQ4IDQ4Ij4KICAgIDxwYXRoIGQ9Ik0wIDBoNDh2NDhoLTQ4eiIgZmlsbD0ibm9uZSIvPgogICAgPHBhdGggZD0iTTI0IDRjLTExLjA1IDAtMjAgOC45NS0yMCAyMHM4Ljk1IDIwIDIwIDIwIDIwLTguOTUgMjAtMjAtOC45NS0yMC0yMC0yMHptLTE2IDIwYzAtOC44NCA3LjE2LTE2IDE2LTE2IDMuNyAwIDcuMDkgMS4yNyA5LjggMy4zN2wtMjIuNDMgMjIuNDNjLTIuMS0yLjcxLTMuMzctNi4xLTMuMzctOS44em0xNiAxNmMtMy43IDAtNy4wOS0xLjI3LTkuOC0zLjM3bDIyLjQzLTIyLjQzYzIuMSAyLjcxIDMuMzcgNi4xIDMuMzcgOS44IDAgOC44NC03LjE2IDE2LTE2IDE2eiIvPgo8L3N2Zz4=;imageBackground=none;labelBorderColor=none;sketch=0;" parent="1" vertex="1">
          <mxGeometry x="128" y="566" width="20" height="20" as="geometry" />
        </mxCell>
        <mxCell id="djonJGLYD7yaMhUm2BC5-7" value="" style="group" parent="1" vertex="1" connectable="0">
          <mxGeometry x="510" y="80.5" width="230" height="36" as="geometry" />
        </mxCell>
        <mxCell id="djonJGLYD7yaMhUm2BC5-8" value="&lt;p&gt;&lt;i&gt;&lt;font size=&quot;1&quot;&gt;La fin du transfert de fichier&amp;nbsp;enchaîne&lt;br&gt;automatiquement sur les traitements back&lt;/font&gt;&lt;/i&gt;&lt;/p&gt;" style="whiteSpace=wrap;html=1;align=center;labelBorderColor=none;sketch=0;" parent="djonJGLYD7yaMhUm2BC5-7" vertex="1">
          <mxGeometry width="230" height="36" as="geometry" />
        </mxCell>
        <mxCell id="djonJGLYD7yaMhUm2BC5-9" value="" style="shape=image;verticalLabelPosition=bottom;verticalAlign=top;imageAspect=0;aspect=fixed;image=data:image/svg+xml,PHN2ZyB4bWxucz0iaHR0cDovL3d3dy53My5vcmcvMjAwMC9zdmciIHdpZHRoPSI0OCIgaGVpZ2h0PSI0OCIgdmlld0JveD0iMCAwIDQ4IDQ4Ij4KICAgIDxwYXRoIGQ9Ik0wIDBoNDh2NDhoLTQ4eiIgZmlsbD0ibm9uZSIvPgogICAgPHBhdGggZD0iTTIyIDM0aDR2LTEyaC00djEyem0yLTMwYy0xMS4wNSAwLTIwIDguOTUtMjAgMjBzOC45NSAyMCAyMCAyMCAyMC04Ljk1IDIwLTIwLTguOTUtMjAtMjAtMjB6bTAgMzZjLTguODIgMC0xNi03LjE4LTE2LTE2czcuMTgtMTYgMTYtMTYgMTYgNy4xOCAxNiAxNi03LjE4IDE2LTE2IDE2em0tMi0yMmg0di00aC00djR6Ii8+Cjwvc3ZnPg==" parent="djonJGLYD7yaMhUm2BC5-7" vertex="1">
          <mxGeometry x="0.74" y="5.5" width="24.5" height="24.5" as="geometry" />
        </mxCell>
        <mxCell id="djonJGLYD7yaMhUm2BC5-11" value="" style="group" parent="1" vertex="1" connectable="0">
          <mxGeometry x="313" y="-60" width="260" height="36" as="geometry" />
        </mxCell>
        <mxCell id="djonJGLYD7yaMhUm2BC5-12" value="&lt;p&gt;&lt;i&gt;&lt;font size=&quot;1&quot;&gt;Le bouton &quot;Importer&quot; n&#39;est actif que si la&lt;br&gt;grille&amp;nbsp;est vide (= aucune donnée n&#39;a été saisie)&lt;/font&gt;&lt;/i&gt;&lt;/p&gt;" style="whiteSpace=wrap;html=1;align=center;labelBorderColor=none;sketch=0;" parent="djonJGLYD7yaMhUm2BC5-11" vertex="1">
          <mxGeometry width="260" height="36" as="geometry" />
        </mxCell>
        <mxCell id="djonJGLYD7yaMhUm2BC5-13" value="" style="shape=image;verticalLabelPosition=bottom;verticalAlign=top;imageAspect=0;aspect=fixed;image=data:image/svg+xml,PHN2ZyB4bWxucz0iaHR0cDovL3d3dy53My5vcmcvMjAwMC9zdmciIHdpZHRoPSI0OCIgaGVpZ2h0PSI0OCIgdmlld0JveD0iMCAwIDQ4IDQ4Ij4KICAgIDxwYXRoIGQ9Ik0wIDBoNDh2NDhoLTQ4eiIgZmlsbD0ibm9uZSIvPgogICAgPHBhdGggZD0iTTIyIDM0aDR2LTEyaC00djEyem0yLTMwYy0xMS4wNSAwLTIwIDguOTUtMjAgMjBzOC45NSAyMCAyMCAyMCAyMC04Ljk1IDIwLTIwLTguOTUtMjAtMjAtMjB6bTAgMzZjLTguODIgMC0xNi03LjE4LTE2LTE2czcuMTgtMTYgMTYtMTYgMTYgNy4xOCAxNiAxNi03LjE4IDE2LTE2IDE2em0tMi0yMmg0di00aC00djR6Ii8+Cjwvc3ZnPg==" parent="djonJGLYD7yaMhUm2BC5-11" vertex="1">
          <mxGeometry x="0.8365217391304347" y="5.5" width="24.5" height="24.5" as="geometry" />
        </mxCell>
        <mxCell id="zQP1MsFoER0FfWEiCymq-3" value="" style="endArrow=none;dashed=1;html=1;rounded=0;" parent="1" edge="1">
          <mxGeometry width="50" height="50" relative="1" as="geometry">
            <mxPoint x="10" y="318.5" as="sourcePoint" />
            <mxPoint x="520" y="318.5" as="targetPoint" />
          </mxGeometry>
        </mxCell>
        <mxCell id="zQP1MsFoER0FfWEiCymq-7" value="&lt;div style=&quot;text-align: left&quot;&gt;&lt;span&gt;Valider le fichier&lt;/span&gt;&lt;/div&gt;&lt;div style=&quot;text-align: left&quot;&gt;&lt;i&gt;&lt;span&gt;Conteneur + Contenu Structure&amp;nbsp;&lt;/span&gt;&lt;font color=&quot;#9933ff&quot;&gt;(en back)&lt;/font&gt;&lt;/i&gt;&lt;span&gt;&lt;br&gt;&lt;/span&gt;&lt;/div&gt;&lt;div style=&quot;text-align: left&quot;&gt;&lt;span style=&quot;font-size: 12px&quot;&gt;(analyse &quot;hybride&quot; + re-vérifier l&#39;extension XLSX en&amp;nbsp;&lt;/span&gt;&lt;span style=&quot;font-size: 12px&quot;&gt;back)&lt;/span&gt;&lt;/div&gt;" style="text;strokeColor=none;fillColor=none;html=1;fontSize=17;fontStyle=1;verticalAlign=middle;align=center;" parent="1" vertex="1">
          <mxGeometry x="119" y="130" width="102" height="40" as="geometry" />
        </mxCell>
        <mxCell id="zQP1MsFoER0FfWEiCymq-8" value="Analyser le contenu du fichier (et parfois importer)&lt;br&gt;&lt;i&gt;Contenu Données&amp;nbsp;&lt;font color=&quot;#9933ff&quot;&gt;(en back)&lt;/font&gt;&lt;/i&gt;" style="text;strokeColor=none;fillColor=none;html=1;fontSize=17;fontStyle=1;verticalAlign=middle;align=left;" parent="1" vertex="1">
          <mxGeometry x="4" y="330" width="100" height="40" as="geometry" />
        </mxCell>
        <mxCell id="ad_2eYVfo9_kVBPBym1L-1" value="" style="endArrow=none;dashed=1;html=1;rounded=0;" parent="1" edge="1">
          <mxGeometry width="50" height="50" relative="1" as="geometry">
            <mxPoint x="10" y="112" as="sourcePoint" />
            <mxPoint x="520" y="112" as="targetPoint" />
          </mxGeometry>
        </mxCell>
        <mxCell id="ad_2eYVfo9_kVBPBym1L-2" value="Vérifier l&#39;extension XLSX&lt;br&gt;Composant DropZone &lt;font color=&quot;#ff33ff&quot;&gt;&lt;i&gt;(en front)&lt;/i&gt;&lt;/font&gt;" style="text;strokeColor=none;fillColor=none;html=1;fontSize=17;fontStyle=1;verticalAlign=middle;align=left;" parent="1" vertex="1">
          <mxGeometry x="2" y="7" width="99" height="43.5" as="geometry" />
        </mxCell>
        <mxCell id="ad_2eYVfo9_kVBPBym1L-6" value="" style="endArrow=none;dashed=1;html=1;rounded=0;" parent="1" edge="1">
          <mxGeometry width="50" height="50" relative="1" as="geometry">
            <mxPoint x="15" as="sourcePoint" />
            <mxPoint x="525" as="targetPoint" />
          </mxGeometry>
        </mxCell>
        <mxCell id="O9G0qqj6Nie969zO0wKp-8" style="edgeStyle=orthogonalEdgeStyle;rounded=0;orthogonalLoop=1;jettySize=auto;html=1;exitX=1;exitY=0.5;exitDx=0;exitDy=0;fontColor=#000000;" parent="1" source="O9G0qqj6Nie969zO0wKp-1" target="TSUCbPAbVoKPbsh4vDsl-7" edge="1">
          <mxGeometry relative="1" as="geometry" />
        </mxCell>
        <mxCell id="O9G0qqj6Nie969zO0wKp-1" value="Rapports &quot;Rejet&quot;" style="rounded=0;whiteSpace=wrap;html=1;" parent="1" vertex="1">
          <mxGeometry x="550" y="250" width="120" height="60" as="geometry" />
        </mxCell>
        <mxCell id="g9lP3eDFJBcNKg0Iy1Fq-2" value="&lt;font size=&quot;1&quot;&gt;&lt;b style=&quot;font-size: 7px&quot;&gt;Abandonner&lt;/b&gt;&lt;/font&gt;" style="rounded=1;whiteSpace=wrap;html=1;strokeWidth=2;verticalAlign=bottom;fillColor=#dae8fc;strokeColor=#999999;fontColor=#3399FF;" parent="1" vertex="1">
          <mxGeometry x="620" y="300" width="50" height="17" as="geometry" />
        </mxCell>
        <mxCell id="O9G0qqj6Nie969zO0wKp-10" style="edgeStyle=orthogonalEdgeStyle;rounded=0;orthogonalLoop=1;jettySize=auto;html=1;exitX=0;exitY=0.5;exitDx=0;exitDy=0;entryX=0.5;entryY=0;entryDx=0;entryDy=0;fontColor=#000000;" parent="1" source="O9G0qqj6Nie969zO0wKp-9" target="TSUCbPAbVoKPbsh4vDsl-24" edge="1">
          <mxGeometry relative="1" as="geometry">
            <mxPoint x="390" y="340" as="targetPoint" />
            <Array as="points">
              <mxPoint x="330" y="240" />
              <mxPoint x="330" y="304" />
              <mxPoint x="420" y="304" />
            </Array>
          </mxGeometry>
        </mxCell>
        <mxCell id="O9G0qqj6Nie969zO0wKp-11" style="edgeStyle=orthogonalEdgeStyle;rounded=0;orthogonalLoop=1;jettySize=auto;html=1;exitX=1;exitY=0.5;exitDx=0;exitDy=0;entryX=0;entryY=0.75;entryDx=0;entryDy=0;fontColor=#000000;" parent="1" source="O9G0qqj6Nie969zO0wKp-9" target="O9G0qqj6Nie969zO0wKp-1" edge="1">
          <mxGeometry relative="1" as="geometry" />
        </mxCell>
        <mxCell id="O9G0qqj6Nie969zO0wKp-9" value="&lt;font style=&quot;font-size: 12px&quot;&gt;Structure Excel&lt;br&gt;valide ?&lt;br&gt;&lt;/font&gt;" style="rhombus;whiteSpace=wrap;html=1;" parent="1" vertex="1">
          <mxGeometry x="382.5" y="200" width="80" height="80" as="geometry" />
        </mxCell>
        <mxCell id="O9G0qqj6Nie969zO0wKp-13" value="✅OUI&amp;nbsp;" style="edgeLabel;resizable=0;html=1;align=center;verticalAlign=middle;fontColor=#006600;" parent="1" connectable="0" vertex="1">
          <mxGeometry x="490" y="404" as="geometry" />
        </mxCell>
        <mxCell id="O9G0qqj6Nie969zO0wKp-14" value="❌NON" style="edgeLabel;resizable=0;html=1;align=center;verticalAlign=middle;fontColor=#CC0000;" parent="1" connectable="0" vertex="1">
          <mxGeometry x="482.5" y="230" as="geometry" />
        </mxCell>
        <mxCell id="O9G0qqj6Nie969zO0wKp-17" value="" style="shape=image;verticalLabelPosition=bottom;verticalAlign=top;imageAspect=0;aspect=fixed;image=data:image/svg+xml,PHN2ZyB4bWxucz0iaHR0cDovL3d3dy53My5vcmcvMjAwMC9zdmciIHdpZHRoPSI0OCIgaGVpZ2h0PSI0OCIgdmlld0JveD0iMCAwIDQ4IDQ4Ij4KICAgIDxwYXRoIGQ9Ik04IDIxYy0xLjY2IDAtMyAxLjM0LTMgM3MxLjM0IDMgMyAzIDMtMS4zNCAzLTMtMS4zNC0zLTMtM3ptMC0xMmMtMS42NiAwLTMgMS4zNC0zIDNzMS4zNCAzIDMgMyAzLTEuMzQgMy0zLTEuMzQtMy0zLTN6bTAgMjQuMzNjLTEuNDcgMC0yLjY3IDEuMTktMi42NyAyLjY3czEuMiAyLjY3IDIuNjcgMi42NyAyLjY3LTEuMTkgMi42Ny0yLjY3LTEuMi0yLjY3LTIuNjctMi42N3ptNiA0LjY3aDI4di00aC0yOHY0em0wLTEyaDI4di00aC0yOHY0em0wLTE2djRoMjh2LTRoLTI4eiIvPgogICAgPHBhdGggZD0iTTAgMGg0OHY0OGgtNDh6IiBmaWxsPSJub25lIi8+Cjwvc3ZnPg==;fontColor=#000000;" parent="1" vertex="1">
          <mxGeometry x="553" y="251" width="20" height="20" as="geometry" />
        </mxCell>
        <mxCell id="O9G0qqj6Nie969zO0wKp-19" value="" style="shape=image;verticalLabelPosition=bottom;verticalAlign=top;imageAspect=0;aspect=fixed;image=data:image/svg+xml,PHN2ZyB4bWxucz0iaHR0cDovL3d3dy53My5vcmcvMjAwMC9zdmciIHdpZHRoPSI0OCIgaGVpZ2h0PSI0OCIgdmlld0JveD0iMCAwIDQ4IDQ4Ij4KICAgIDxwYXRoIGQ9Ik04IDIxYy0xLjY2IDAtMyAxLjM0LTMgM3MxLjM0IDMgMyAzIDMtMS4zNCAzLTMtMS4zNC0zLTMtM3ptMC0xMmMtMS42NiAwLTMgMS4zNC0zIDNzMS4zNCAzIDMgMyAzLTEuMzQgMy0zLTEuMzQtMy0zLTN6bTAgMjQuMzNjLTEuNDcgMC0yLjY3IDEuMTktMi42NyAyLjY3czEuMiAyLjY3IDIuNjcgMi42NyAyLjY3LTEuMTkgMi42Ny0yLjY3LTEuMi0yLjY3LTIuNjctMi42N3ptNiA0LjY3aDI4di00aC0yOHY0em0wLTEyaDI4di00aC0yOHY0em0wLTE2djRoMjh2LTRoLTI4eiIvPgogICAgPHBhdGggZD0iTTAgMGg0OHY0OGgtNDh6IiBmaWxsPSJub25lIi8+Cjwvc3ZnPg==;fontColor=#000000;" parent="1" vertex="1">
          <mxGeometry x="462.5" y="464" width="20" height="20" as="geometry" />
        </mxCell>
        <mxCell id="O9G0qqj6Nie969zO0wKp-20" value="" style="shape=image;verticalLabelPosition=bottom;verticalAlign=top;imageAspect=0;aspect=fixed;image=data:image/svg+xml,PHN2ZyB4bWxucz0iaHR0cDovL3d3dy53My5vcmcvMjAwMC9zdmciIHdpZHRoPSI0OCIgaGVpZ2h0PSI0OCIgdmlld0JveD0iMCAwIDQ4IDQ4Ij4KICAgIDxwYXRoIGQ9Ik04IDIxYy0xLjY2IDAtMyAxLjM0LTMgM3MxLjM0IDMgMyAzIDMtMS4zNCAzLTMtMS4zNC0zLTMtM3ptMC0xMmMtMS42NiAwLTMgMS4zNC0zIDNzMS4zNCAzIDMgMyAzLTEuMzQgMy0zLTEuMzQtMy0zLTN6bTAgMjQuMzNjLTEuNDcgMC0yLjY3IDEuMTktMi42NyAyLjY3czEuMiAyLjY3IDIuNjcgMi42NyAyLjY3LTEuMTkgMi42Ny0yLjY3LTEuMi0yLjY3LTIuNjctMi42N3ptNiA0LjY3aDI4di00aC0yOHY0em0wLTEyaDI4di00aC0yOHY0em0wLTE2djRoMjh2LTRoLTI4eiIvPgogICAgPHBhdGggZD0iTTAgMGg0OHY0OGgtNDh6IiBmaWxsPSJub25lIi8+Cjwvc3ZnPg==;fontColor=#000000;" parent="1" vertex="1">
          <mxGeometry x="260" y="465" width="20" height="20" as="geometry" />
        </mxCell>
        <UserObject label="" link="https://docs.google.com/spreadsheets/d/1uEsXAKq1PgPxjSkcsupEieimmrUVBQ5mCpDxnFOsYDY/edit?usp=sharing" linkTarget="_blank" id="O9G0qqj6Nie969zO0wKp-21">
          <mxCell style="group;aspect=fixed;" parent="1" vertex="1" connectable="0">
            <mxGeometry x="510" y="180" width="250" height="34.62" as="geometry" />
          </mxCell>
        </UserObject>
        <mxCell id="O9G0qqj6Nie969zO0wKp-22" value="&lt;p&gt;&lt;font size=&quot;1&quot;&gt;&lt;i&gt;Détails des rapports : voir GSheet (clic !)&lt;/i&gt;&lt;/font&gt;&lt;/p&gt;" style="whiteSpace=wrap;html=1;align=center;labelBorderColor=none;sketch=0;" parent="O9G0qqj6Nie969zO0wKp-21" vertex="1">
          <mxGeometry width="250.00000000000003" height="34.62" as="geometry" />
        </mxCell>
        <mxCell id="O9G0qqj6Nie969zO0wKp-25" value="" style="html=1;strokeWidth=1;shadow=0;dashed=0;shape=mxgraph.ios7.misc.link;fillColor=#4CDA64;strokeColor=none;buttonText=;strokeColor2=#222222;fontColor=#222222;fontSize=8;verticalLabelPosition=bottom;verticalAlign=top;align=center;sketch=0;aspect=fixed;" parent="O9G0qqj6Nie969zO0wKp-21" vertex="1">
          <mxGeometry x="5.857209069967233" y="6.213846153846154" width="23.077469289213944" height="23.077469289213944" as="geometry" />
        </mxCell>
        <mxCell id="O9G0qqj6Nie969zO0wKp-26" value="" style="shape=image;verticalLabelPosition=bottom;verticalAlign=top;imageAspect=0;aspect=fixed;image=data:image/svg+xml,PHN2ZyB4bWxucz0iaHR0cDovL3d3dy53My5vcmcvMjAwMC9zdmciIHdpZHRoPSI0OCIgaGVpZ2h0PSI0OCIgdmlld0JveD0iMCAwIDQ4IDQ4Ij4KICAgIDxwYXRoIGQ9Ik04IDIxYy0xLjY2IDAtMyAxLjM0LTMgM3MxLjM0IDMgMyAzIDMtMS4zNCAzLTMtMS4zNC0zLTMtM3ptMC0xMmMtMS42NiAwLTMgMS4zNC0zIDNzMS4zNCAzIDMgMyAzLTEuMzQgMy0zLTEuMzQtMy0zLTN6bTAgMjQuMzNjLTEuNDcgMC0yLjY3IDEuMTktMi42NyAyLjY3czEuMiAyLjY3IDIuNjcgMi42NyAyLjY3LTEuMTkgMi42Ny0yLjY3LTEuMi0yLjY3LTIuNjctMi42N3ptNiA0LjY3aDI4di00aC0yOHY0em0wLTEyaDI4di00aC0yOHY0em0wLTE2djRoMjh2LTRoLTI4eiIvPgogICAgPHBhdGggZD0iTTAgMGg0OHY0OGgtNDh6IiBmaWxsPSJub25lIi8+Cjwvc3ZnPg==;fontColor=#000000;" parent="1" vertex="1">
          <mxGeometry x="625" y="-13" width="20" height="20" as="geometry" />
        </mxCell>
        <mxCell id="O9G0qqj6Nie969zO0wKp-27" value="" style="shape=image;verticalLabelPosition=bottom;verticalAlign=top;imageAspect=0;aspect=fixed;image=data:image/svg+xml,PHN2ZyB4bWxucz0iaHR0cDovL3d3dy53My5vcmcvMjAwMC9zdmciIHdpZHRoPSI0OCIgaGVpZ2h0PSI0OCIgdmlld0JveD0iMCAwIDQ4IDQ4Ij4KICAgIDxwYXRoIGZpbGwtb3BhY2l0eT0iLjkiIGQ9Ik0yMy45OSA0Yy0xMS4wNSAwLTE5Ljk5IDguOTUtMTkuOTkgMjBzOC45NCAyMCAxOS45OSAyMGMxMS4wNSAwIDIwLjAxLTguOTUgMjAuMDEtMjBzLTguOTYtMjAtMjAuMDEtMjB6bS4wMSAzNmMtOC44NCAwLTE2LTcuMTYtMTYtMTZzNy4xNi0xNiAxNi0xNiAxNiA3LjE2IDE2IDE2LTcuMTYgMTYtMTYgMTZ6Ii8+CiAgICA8cGF0aCBkPSJNMCAwaDQ4djQ4aC00OHoiIGZpbGw9Im5vbmUiLz4KICAgIDxwYXRoIGZpbGwtb3BhY2l0eT0iLjkiIGQ9Ik0yNSAxNGgtM3YxMmwxMC40OSA2LjMgMS41MS0yLjQ2LTktNS4zNHoiLz4KPC9zdmc+" parent="1" vertex="1">
          <mxGeometry x="625" y="-44" width="20" height="20" as="geometry" />
        </mxCell>
        <mxCell id="O9G0qqj6Nie969zO0wKp-28" value="" style="html=1;strokeWidth=1;shadow=0;dashed=0;shape=mxgraph.ios7.misc.link;fillColor=#4CDA64;strokeColor=none;buttonText=;strokeColor2=#222222;fontColor=#222222;fontSize=8;verticalLabelPosition=bottom;verticalAlign=top;align=center;sketch=0;aspect=fixed;" parent="1" vertex="1">
          <mxGeometry x="623.8572090699672" y="19.213846153846163" width="23.077469289213944" height="23.077469289213944" as="geometry" />
        </mxCell>
        <mxCell id="O9G0qqj6Nie969zO0wKp-29" value="Ecran avec Loader d&#39;attente" style="text;html=1;strokeColor=none;fillColor=none;align=center;verticalAlign=middle;whiteSpace=wrap;rounded=0;fontColor=#000000;" parent="1" vertex="1">
          <mxGeometry x="660" y="-49" width="140" height="30" as="geometry" />
        </mxCell>
        <mxCell id="O9G0qqj6Nie969zO0wKp-30" value="Ecran avec Rapport de traitement" style="text;html=1;strokeColor=none;fillColor=none;align=center;verticalAlign=middle;whiteSpace=wrap;rounded=0;fontColor=#000000;" parent="1" vertex="1">
          <mxGeometry x="670" y="-13" width="140" height="30" as="geometry" />
        </mxCell>
        <mxCell id="O9G0qqj6Nie969zO0wKp-31" value="Lien cliquable (info complémentaires)" style="text;html=1;strokeColor=none;fillColor=none;align=center;verticalAlign=middle;whiteSpace=wrap;rounded=0;fontColor=#000000;" parent="1" vertex="1">
          <mxGeometry x="670" y="19.21" width="140" height="30" as="geometry" />
        </mxCell>
        <mxCell id="O9G0qqj6Nie969zO0wKp-32" value="Légende" style="text;strokeColor=none;fillColor=none;html=1;fontSize=24;fontStyle=1;verticalAlign=middle;align=center;fontColor=#000000;" parent="1" vertex="1">
          <mxGeometry x="624" y="-100" width="100" height="40" as="geometry" />
        </mxCell>
        <mxCell id="O9G0qqj6Nie969zO0wKp-33" value="Diagram d&#39;import Excel" style="text;strokeColor=none;fillColor=none;html=1;fontSize=24;fontStyle=1;verticalAlign=middle;align=center;fontColor=#000000;" parent="1" vertex="1">
          <mxGeometry x="375" y="-140" width="100" height="70" as="geometry" />
        </mxCell>
      </root>
    </mxGraphModel>
  </diagram>
</mxfile>
